<svg xmlns="http://www.w3.org/2000/svg" viewBox="0 0 240 48"><path fill="#e1e3e6" d="M38 2.88a9.72 9.72 0 0 0-16.59 6.5v9.21a.87.87 0 0 0 .87.87h8.42a9.63 9.63 0 0 0 7.3-2.83 9.75 9.75 0 0 0 0-13.75z"/><path fill="#f03748" d="M3 10.29a9.72 9.72 0 0 0 6.5 16.59h9.22a.86.86 0 0 0 .86-.87v-8.42a9.61 9.61 0 0 0-2.83-7.3 9.75 9.75 0 0 0-13.75 0zm7.44 34.9A9.72 9.72 0 0 0 27 38.7v-9.22a.86.86 0 0 0-.87-.86h-8.39a9.61 9.61 0 0 0-7.3 2.83 9.74 9.74 0 0 0 0 13.74zm34.9-7.4a9.71 9.71 0 0 0-6.49-16.58h-9.22a.87.87 0 0 0-.87.86v8.42a9.58 9.58 0 0 0 2.84 7.3 9.72 9.72 0 0 0 13.74 0z"/><path fill="#e1e3e6" d="M147.42 32.55a8.19 8.19 0 0 1-4.11 1.45c-1.59 0-3-.86-3-3.2v-6.87h7l-1.6-4.65h-5.44v-4.77h-5v4.77h-3.55v4.52l3.55.13v7.3c0 4.87 2.41 7.51 7.14 7.51a12.36 12.36 0 0 0 6.4-2zm24.98.27l4.12-13.54h5.38l-6.5 19.14h-5.87l-4.21-12.7-4.22 12.7h-5.82l-6.52-19.14h5.46l4.16 13.45 4.3-13.45h5.41zM226.27 26h1.82l5.39-6.67h6.31l-7.55 8.83 7.57 10.31h-6.32l-5.48-8h-1.74v8h-5.15V9.72h5.15zM97.31 19a6.43 6.43 0 0 0-5.48 2.5V9.73h-5v28.69h5V27.34a3.83 3.83 0 0 1 4-3.64c2.35 0 3.72 1.5 3.72 4.21v10.52h5.12V26.29A7 7 0 0 0 97.31 19zm26.04.28v1.15a10.09 10.09 0 0 0-5.26-1.43 9.89 9.89 0 1 0 0 19.78 10.09 10.09 0 0 0 5.26-1.47v1.15h5V19.28zM118.09 34a5.17 5.17 0 1 1 5.26-5.17 5.21 5.21 0 0 1-5.26 5.17zm99.62-14.65a8.7 8.7 0 0 0-1.9-.19 5.91 5.91 0 0 0-5.3 2.55v-2.43h-5.09v19.14h5.09V28.2a3.83 3.83 0 0 1 4.09-4.2 8.17 8.17 0 0 1 3.11.61zM192 18.89a9.9 9.9 0 1 0 10 9.9 10 10 0 0 0-10-9.9zM192 34a5.17 5.17 0 1 1 5.26-5.17A5.21 5.21 0 0 1 192 34zm-108.6-.85L79.61 30a9.6 9.6 0 0 1-7.4 3.45 9.42 9.42 0 1 1 0-18.83A9.63 9.63 0 0 1 79.56 18l3.84-3h.08a14.66 14.66 0 0 0-11.27-5.28 14.35 14.35 0 1 0 0 28.7 14.63 14.63 0 0 0 11.29-5.27z"/></svg>
